<?xml version="1.0" encoding="utf-8" ?>	<!-- Generator: Assembly 2.4 - http://assemblyapp.co -->	<svg version="1.1" xmlns="http://www.w3.org/2000/svg" xmlns:xlink="http://www.w3.org/1999/xlink" width="4096.00" height="4096.00" viewBox="0 0 4096.0 4096.0">		<g id="document" transform="scale(13.653333333333334 13.653333333333334) translate(150.0 150.0)">			<path d="M-61.2962,77.2444 C-61.2962,77.2444 -61.2962,77.2444 -61.2962,77.2444 C-61.2962,68.6423 -61.2962,51.4381 -61.2962,25.6319 C-48.2768,25.6319 -53.8279,25.6319 -15.2348,25.6319 C-15.2348,20.6588 18.9155,-25.6319 18.9155,-25.6319 C18.9155,-25.6319 18.9155,-14.8429 18.9155,-25.6319 C5.89612,-25.6319 -22.7031,-25.6319 -61.2962,-25.6319 C-61.2962,-34.234 -61.2962,-51.4381 -61.2962,-77.2444 C-44.092,-77.2444 -9.79994,-77.2444 41.5801,-77.2444 C41.5801,-88.6363 41.5801,-105.724 41.5801,-128.508 C18.7962,-128.508 -15.4959,-128.508 -61.2962,-128.508 C-72.6881,-128.508 -89.776,-128.508 -112.56,-128.508 C-112.56,-117.116 -112.56,-100.028 -112.56,-77.2444 C-112.56,-71.6646 -112.56,-64.4575 -112.56,-55.6229 C-112.56,-47.0208 -112.56,-37.0238 -112.56,-25.6319 C-112.56,-14.2399 -112.56,2.84799 -112.56,25.6319 C-112.56,37.0238 -112.56,54.228 -112.56,77.2444 C-112.56,88.6363 -112.56,105.724 -112.56,128.508 C-101.168,128.508 -84.0801,128.508 -61.2962,128.508 C-61.2962,128.508 -61.2962,128.508 -61.2962,128.508 C-61.2962,117.116 -61.2962,100.028 -61.2962,77.2444 Z " fill="#ffa900" fill-opacity="1.00" />		</g>	</svg>