<?xml version="1.0" standalone="no"?>
<!DOCTYPE svg PUBLIC "-//W3C//DTD SVG 20010904//EN"
 "http://www.w3.org/TR/2001/REC-SVG-20010904/DTD/svg10.dtd">
<svg version="1.0" xmlns="http://www.w3.org/2000/svg"
 width="300.000000pt" height="369.000000pt" viewBox="0 0 300.000000 369.000000"
 preserveAspectRatio="xMidYMid meet">
<metadata>
Created by potrace 1.10, written by Peter Selinger 2001-2011
</metadata>
<g transform="translate(0.000000,369.000000) scale(0.050000,-0.050000)"
fill="#000000" stroke="none">
<path d="M880 7342 c0 -27 18 -43 60 -52 34 -7 60 -26 60 -43 0 -21 -12 -26
-43 -16 -28 9 -38 6 -28 -9 7 -12 44 -22 81 -22 36 0 71 -11 77 -25 7 -19 10
-18 11 2 1 15 -16 31 -38 37 -71 19 -42 40 43 32 54 -6 89 0 99 17 18 30 -15
77 -54 77 -16 0 -28 7 -28 15 0 8 -54 18 -120 21 -108 5 -120 2 -120 -34z"/>
<path d="M1410 7248 c-110 -72 -219 -133 -243 -135 -24 -2 -39 -9 -35 -17 5
-7 0 -19 -12 -26 -11 -7 -20 4 -20 25 0 23 -14 36 -40 36 -48 0 -53 -47 -8
-65 42 -16 17 -36 -312 -255 -364 -242 -435 -280 -446 -236 -7 26 -10 23 -12
-11 -3 -55 -50 -77 -108 -48 -24 12 -57 26 -74 32 -16 6 13 6 65 -1 100 -12
146 43 55 67 -22 6 -40 19 -40 28 0 10 -16 18 -35 18 -27 1 -29 4 -8 18 15 9
42 15 60 13 18 -2 4 5 -32 16 -36 11 -65 27 -65 36 0 9 -15 10 -33 3 -23 -9
-29 -5 -19 11 9 14 30 20 49 15 18 -5 68 -15 111 -21 43 -7 97 -15 120 -18 23
-4 32 -3 19 1 -48 17 -50 70 -2 55 85 -26 12 21 -81 53 -77 26 -96 42 -104 88
-8 43 -27 62 -85 82 l-75 26 0 -1359 c0 -893 7 -1359 20 -1359 11 0 20 14 20
30 0 19 19 30 50 30 36 0 50 -11 50 -37 0 -21 6 -66 13 -100 12 -62 11 -63
-70 -63 -80 0 -83 -2 -83 -65 l0 -65 575 7 c613 7 604 6 565 53 -20 25 -19 30
8 30 17 0 33 -16 34 -35 0 -19 6 -24 11 -11 5 13 23 19 40 12 22 -8 24 -16 6
-26 -37 -23 91 -31 291 -19 l180 11 -170 4 c-166 4 -171 6 -204 64 -22 39 -26
60 -11 60 13 0 57 33 99 74 99 96 117 75 27 -33 -39 -47 -71 -89 -71 -94 0 -6
139 -7 310 -3 223 4 310 13 310 30 0 13 9 29 19 35 10 7 15 -7 11 -31 -5 -24
-4 -39 2 -33 6 6 37 4 70 -5 34 -10 58 -10 58 1 0 11 -20 19 -45 20 -41 0 -41
2 -10 21 20 11 31 29 24 39 -6 11 4 19 23 19 19 0 29 6 22 13 -8 7 -2 28 11
45 21 27 20 28 -5 9 -44 -34 -151 -42 -145 -12 3 15 -16 25 -46 25 -28 0 -46
-8 -40 -18 6 -9 -7 -22 -29 -28 -32 -8 -36 -4 -20 25 20 38 115 60 254 61 92
0 128 -30 78 -66 -60 -44 -40 -368 24 -389 13 -5 24 0 24 11 0 11 18 24 40 30
49 13 51 -2 5 -40 -32 -27 -32 -28 10 -19 50 10 58 -6 21 -43 -49 -49 -112
-28 -139 46 -34 95 -66 78 -73 -39 l-6 -97 116 14 c63 7 124 22 135 33 33 33
46 21 36 -31 -5 -27 -1 -50 11 -50 70 0 37 -75 -82 -189 -160 -152 -294 -372
-294 -482 -1 -77 -4 -80 -112 -127 -156 -68 -399 -235 -489 -338 -72 -82 -79
-85 -123 -58 -25 16 -82 41 -126 55 -44 14 -96 43 -115 65 -19 22 -36 32 -36
22 -1 -10 -10 2 -20 27 -10 25 -13 59 -6 75 6 17 1 30 -11 30 -12 0 -22 13
-22 28 0 31 -173 98 -204 80 -10 -7 -27 -31 -36 -55 -15 -38 -18 -35 -19 21
-1 80 -40 109 -43 32 0 -31 -6 -45 -11 -31 -6 14 -17 21 -26 16 -8 -5 -32 3
-53 19 -35 26 -35 29 -3 29 60 1 38 37 -30 51 -101 20 -195 69 -195 101 0 18
-20 29 -49 29 -36 0 -47 -8 -38 -30 6 -16 1 -30 -11 -30 -12 0 -22 8 -22 18 0
9 -43 32 -95 51 -181 63 -165 72 -165 -83 l0 -138 66 8 c81 9 114 -25 128
-135 9 -66 5 -81 -21 -81 -18 0 -33 10 -33 22 0 13 -17 18 -37 13 -21 -5 -52
-1 -70 9 -30 17 -33 -65 -33 -1044 0 -703 7 -1058 20 -1050 11 7 20 3 20 -8 0
-11 -9 -25 -20 -32 -12 -7 -20 -134 -20 -311 l0 -299 3001 0 3000 0 -5 195
c-5 170 -11 195 -43 202 -31 6 -33 1 -14 -35 19 -35 17 -39 -12 -28 -23 9 -29
5 -19 -11 8 -12 5 -23 -7 -23 -11 0 -21 -18 -21 -41 0 -34 -6 -37 -39 -20 -21
12 -59 21 -85 21 -100 1 -105 16 -108 354 -4 398 -71 696 -231 1025 -56 115
-106 237 -111 270 -74 496 -379 870 -866 1060 -103 41 -251 204 -446 491 -58
86 -131 127 -298 167 -109 26 -119 52 -45 126 41 41 56 46 80 26 21 -18 29
-18 29 -1 0 17 11 18 39 3 48 -26 107 -27 92 -3 -6 11 0 23 14 27 14 5 2 5
-25 1 -28 -4 -86 5 -129 20 -95 33 -122 79 -36 62 93 -19 111 25 121 281 8
217 7 227 -37 257 -44 31 -45 38 -33 274 8 151 5 237 -7 229 -10 -6 -19 5 -20
25 0 42 -45 106 -73 106 -60 0 -108 102 -83 176 30 88 36 164 12 164 -10 0
-12 9 -6 19 7 10 -8 30 -33 43 -25 13 -91 61 -146 108 -164 138 -244 161 -350
100 -58 -33 -170 -42 -120 -10 24 16 22 19 -14 20 -24 0 -49 -9 -56 -20 -7
-11 -35 -20 -62 -20 -49 0 -86 -28 -247 -185 -97 -95 -121 -95 -121 1 0 64 9
80 55 99 l55 22 -58 -11 c-72 -15 -64 37 8 54 71 17 72 55 1 44 -78 -11 -79
12 -1 39 33 12 60 29 60 38 0 10 -27 13 -60 6 -38 -8 -60 -4 -60 11 0 12 14
22 31 22 17 0 26 9 19 20 -7 12 -21 15 -31 9 -11 -7 -21 70 -23 185 -4 189 -4
190 -11 43 -6 -143 -10 -154 -56 -165 -27 -7 -49 -22 -49 -33 0 -11 22 -14 50
-7 28 7 50 4 50 -8 0 -11 -22 -25 -50 -32 -27 -7 -50 -22 -50 -33 0 -11 22
-14 50 -7 30 7 50 4 50 -9 0 -12 -22 -28 -50 -35 -27 -7 -50 -21 -50 -32 0
-12 22 -15 50 -8 29 7 50 4 50 -8 0 -11 -7 -20 -16 -20 -9 0 -34 -14 -55 -31
-37 -30 -37 -31 16 -20 64 14 78 -27 15 -43 -22 -6 -40 -19 -40 -30 0 -10 18
-13 40 -6 58 19 57 -124 -2 -187 -23 -25 -37 -57 -31 -72 11 -30 -26 -51 -89
-51 -21 0 -38 -9 -38 -20 0 -11 14 -20 30 -20 17 0 30 -9 30 -20 0 -11 -13
-20 -30 -20 -16 0 -28 -16 -27 -35 9 -102 -3 -137 -48 -136 -25 1 -45 -8 -45
-19 0 -10 16 -17 35 -13 19 3 35 -4 35 -16 0 -11 -17 -21 -39 -21 -21 0 -44
-9 -51 -20 -7 -11 10 -20 39 -20 28 0 51 -9 51 -20 0 -11 -22 -20 -50 -20 -27
0 -50 -9 -50 -20 0 -11 23 -20 51 -20 29 0 46 -9 39 -20 -7 -11 -30 -20 -51
-20 -22 0 -39 -10 -39 -22 0 -14 21 -19 52 -13 57 11 64 1 73 -115 4 -45 13
-91 21 -103 8 -13 0 -28 -17 -35 -18 -6 -26 -21 -19 -32 7 -11 3 -20 -9 -20
-11 0 -21 9 -21 20 0 11 -18 20 -40 20 -22 0 -40 -9 -40 -20 0 -28 -92 -25
-145 5 -54 30 -76 58 -62 79 5 9 -5 16 -23 16 -18 0 -27 -9 -20 -20 7 -11 3
-20 -9 -20 -50 0 -20 78 34 86 46 7 43 9 -18 11 -50 2 -77 -7 -85 -29 -10 -27
-18 -28 -43 -7 -24 20 -40 20 -78 0 -32 -17 -90 -22 -182 -13 -83 7 -145 4
-160 -9 -18 -15 -29 -15 -38 0 -16 26 -91 28 -91 2 0 -10 16 -22 35 -27 19 -5
-12 -10 -69 -12 -75 -1 -110 -12 -127 -37 -19 -31 -21 -31 -12 -1 6 18 0 37
-13 41 -18 6 -17 17 3 42 19 22 20 33 5 33 -14 0 -20 26 -15 69 6 60 0 72 -45
87 -52 18 -52 18 -7 32 52 17 69 219 20 239 -20 8 -20 10 0 11 14 1 25 16 25
32 0 32 -13 31 -180 -12 -104 -27 -137 -20 -73 14 36 20 52 42 45 61 -6 16 -3
24 7 18 32 -20 121 34 150 92 26 54 25 57 -16 58 l-43 2 45 18 c46 18 62 59
24 59 -11 0 -52 -13 -90 -29 -38 -16 -74 -30 -79 -30 -6 -1 -8 -8 -5 -16 3 -8
28 -13 55 -10 47 4 46 3 -9 -21 -48 -21 -53 -29 -27 -39 19 -7 38 -2 43 11 5
13 11 6 11 -16 2 -34 -12 -40 -83 -43 -47 -1 -69 2 -50 7 19 5 35 17 35 27 0
26 -76 22 -161 -8 -39 -14 -84 -21 -99 -16 -16 5 29 23 100 41 70 18 131 43
135 55 5 18 -21 16 -99 -4 -131 -35 -129 -35 -129 0 0 21 15 26 56 17 41 -8
57 -3 57 17 0 36 -118 33 -142 -5 -12 -20 -17 -21 -18 -3 0 14 -13 25 -30 25
-16 0 -30 9 -30 20 0 27 27 25 56 -4 19 -19 24 -18 24 2 0 17 15 23 40 16 59
-15 49 3 -15 29 -30 12 -44 26 -30 31 19 7 18 22 -4 65 -16 31 -24 62 -17 68
7 7 0 13 -16 14 -20 0 -18 6 7 21 19 11 35 42 35 68 0 35 8 46 30 37 16 -6 30
-2 30 10 0 11 -17 26 -38 32 -66 21 -85 591 -20 591 11 0 15 -9 8 -20 -7 -11
1 -14 19 -8 18 7 31 2 31 -14 0 -67 42 24 53 115 l12 99 -81 27 -81 26 54 44
c102 85 511 319 563 323 103 8 111 12 60 27 l-50 15 57 16 c31 8 76 33 100 55
24 22 159 115 301 207 142 92 262 172 268 177 6 6 -29 11 -78 11 -76 0 -118
-19 -288 -132z m-990 -863 c0 -20 -7 -26 -15 -14 -8 11 -35 19 -60 17 -25 -1
-45 5 -45 15 0 9 27 17 60 17 44 0 60 -9 60 -35z m-51 -44 c6 -10 4 -23 -5
-29 -26 -16 -105 10 -93 30 15 24 84 23 98 -1z m-94 -51 c47 -8 85 -23 85 -32
0 -9 -11 -13 -25 -8 -27 9 -149 31 -190 35 -14 1 -25 9 -25 18 0 9 16 14 35
10 19 -4 73 -14 120 -23z m2245 -1360 c0 -32 -60 -110 -84 -110 -25 0 -19 89
8 116 33 33 76 30 76 -6z m219 -101 c-14 -17 -54 -43 -89 -58 -35 -14 -96 -55
-136 -91 -63 -55 -74 -59 -74 -26 0 50 136 180 200 192 110 19 127 16 99 -17z
m-2199 -169 c0 -22 -13 -40 -30 -40 -16 0 -30 10 -30 21 0 12 11 16 25 9 14
-7 8 1 -14 19 -38 30 -38 31 5 31 31 0 44 -12 44 -40z m1893 -170 c-16 -120 1
-174 49 -149 25 13 49 13 73 -1 19 -11 60 -29 90 -39 93 -33 40 -78 -157 -131
-12 -4 -29 -46 -36 -93 -8 -48 -18 -105 -22 -127 -3 -22 -8 -53 -10 -70 -5
-36 -30 72 -49 207 -13 90 -11 96 25 84 29 -9 42 -1 51 33 17 64 16 76 -7 76
-11 0 -20 -24 -20 -54 0 -94 -38 -23 -52 98 -17 144 2 249 45 249 26 0 29 -15
20 -83z m607 -94 c0 -42 11 -94 24 -115 32 -52 11 -70 -45 -37 -36 21 -46 21
-53 1 -6 -15 -41 -39 -80 -55 -84 -36 -86 -36 -86 -10 0 11 12 20 26 20 46 0
109 108 134 230 28 136 80 114 80 -34z m-2440 -36 c22 -14 6 -19 -57 -20 -76
0 -84 -4 -63 -30 42 -51 -10 -33 -60 20 l-47 50 99 0 c54 0 112 -9 128 -20z
m215 -174 c6 -19 -40 -22 -188 -15 -261 13 -277 39 -23 39 141 0 205 -7 211
-24z m2371 -359 c9 -47 4 -67 -20 -76 -25 -9 -27 -6 -9 15 16 20 14 38 -9 70
-17 24 -24 54 -17 66 19 30 42 -1 55 -75z m-198 -259 c37 -14 43 -48 9 -48
-13 0 -39 -13 -57 -30 -28 -26 -37 -26 -76 2 -59 41 -55 64 11 74 30 4 61 9
68 11 8 2 28 -2 45 -9z m230 -64 c-1 -21 -5 -24 -11 -9 -6 14 -19 20 -29 14
-10 -6 -37 2 -60 18 -39 27 -39 30 -5 38 52 11 107 -20 105 -61z m-2461 -818
c139 -49 334 -116 433 -150 99 -34 182 -63 185 -65 3 -2 -23 -67 -57 -144
l-63 -140 -262 114 c-145 62 -357 158 -473 213 l-210 100 75 37 c61 29 75 47
75 94 0 36 8 52 22 44 12 -7 135 -54 275 -103z m-255 -621 c128 -70 138 -80
138 -142 0 -65 -2 -67 -45 -39 -25 16 -97 60 -160 97 -86 51 -115 80 -115 114
0 61 22 57 182 -30z m2458 -457 c0 -83 -3 -88 -40 -68 -45 24 -55 117 -17 155
38 38 57 9 57 -87z m100 31 c0 -52 -21 -99 -45 -99 -11 0 -9 13 6 31 19 23 20
36 2 54 -37 37 -31 106 7 75 17 -14 30 -41 30 -61z m176 57 c38 -38 29 -132
-15 -155 -52 -28 -73 -26 -110 10 -63 64 -27 169 59 169 23 0 53 -11 66 -24z
m-2982 -741 c42 -36 79 -72 83 -80 3 -8 18 -15 32 -15 14 0 49 -19 78 -41 29
-23 63 -35 76 -27 13 8 18 6 11 -5 -21 -35 21 -72 92 -80 39 -4 77 2 84 13 25
40 67 21 56 -25 -7 -33 -4 -38 10 -17 16 22 24 19 42 -15 13 -23 44 -48 70
-54 105 -27 129 -192 41 -289 -25 -27 -63 -81 -86 -119 -39 -64 -103 -101
-103 -58 0 11 -9 14 -20 7 -12 -7 -15 -23 -7 -36 7 -13 6 -17 -3 -9 -9 8 -30
3 -47 -10 -25 -21 -28 -20 -13 5 15 25 13 26 -14 4 -23 -19 -36 -20 -46 -4 -8
13 -27 18 -42 12 -15 -6 -28 -1 -28 11 0 12 -11 17 -25 12 -30 -12 -78 34 -59
56 8 8 -1 10 -20 3 -35 -12 -85 30 -62 53 7 7 -6 13 -29 13 -24 0 -49 10 -57
23 -9 14 -5 18 9 9 13 -8 23 -5 23 5 0 11 -18 26 -39 33 -24 7 -35 23 -28 42
7 16 4 28 -6 27 -37 -7 -106 27 -94 46 7 10 0 27 -15 37 -19 12 -20 17 -4 18
13 0 33 -16 44 -35 12 -19 21 -26 22 -15 0 11 9 7 20 -10 31 -48 23 10 -10 73
-16 31 -30 44 -30 28 0 -20 -11 -14 -32 16 -29 42 -34 43 -57 11 -20 -27 -28
-29 -41 -7 -10 15 -9 30 1 33 96 35 174 83 129 80 -27 -2 -58 -13 -67 -24 -9
-11 -11 2 -3 30 7 28 14 61 15 75 2 23 23 33 60 27 20 -3 19 5 -5 68 -67 176
-33 214 94 105z"/>
<path d="M5613 7367 c-20 -21 -15 -247 6 -247 30 0 51 47 25 55 -34 12 -30 65
5 65 15 0 31 -22 35 -49 5 -40 12 -46 36 -29 23 16 24 24 5 31 -30 12 -34 67
-5 67 11 0 20 14 20 30 0 17 -9 30 -20 30 -11 0 -20 14 -20 30 0 30 -62 42
-87 17z"/>
<path d="M5780 7194 c0 -157 4 -176 30 -154 25 20 30 19 30 -8 0 -17 -13 -32
-28 -32 -15 0 -33 -14 -40 -31 -9 -24 -2 -29 28 -19 34 11 40 4 40 -49 0 -41
10 -61 30 -61 17 0 30 -9 30 -20 0 -29 -60 -24 -61 5 -1 14 -10 4 -20 -21 -10
-26 -28 -41 -39 -34 -11 7 -20 -2 -20 -19 0 -17 14 -31 30 -31 17 0 30 -13 30
-30 0 -16 -13 -30 -30 -30 -16 0 -30 -13 -30 -28 0 -16 -5 -43 -12 -60 -7 -18
-2 -32 11 -32 12 0 30 20 40 45 14 34 19 37 20 10 0 -19 15 -35 31 -35 17 0
30 -13 30 -30 0 -16 -13 -30 -30 -30 -16 0 -30 -13 -30 -29 0 -18 12 -25 30
-18 42 16 39 -46 -3 -69 -18 -10 -49 -14 -70 -9 -25 7 -37 -1 -37 -24 0 -27
13 -30 70 -20 56 11 70 7 70 -19 0 -29 -23 -41 -65 -34 -8 1 -15 -11 -15 -28
0 -16 14 -30 30 -30 17 0 30 -13 30 -30 0 -16 -13 -30 -30 -30 -16 0 -30 -13
-30 -29 0 -18 12 -25 30 -18 21 8 30 -2 30 -31 0 -28 -13 -42 -38 -42 -53 0
-102 -21 -102 -43 0 -10 34 -14 75 -8 95 14 66 1 -80 -36 -63 -16 -115 -21
-115 -11 0 10 18 18 40 18 55 0 51 36 -5 44 l-45 6 45 45 c53 53 56 65 15 65
-16 0 -30 14 -30 30 0 17 14 30 30 30 17 0 30 14 30 31 0 17 -8 26 -19 20 -29
-18 -45 24 -52 136 -9 137 3 171 52 159 31 -9 39 -1 39 42 0 52 -27 70 -49 33
-7 -11 -25 -14 -42 -8 -20 8 -29 -2 -29 -34 0 -44 -1 -43 -41 8 -23 29 -37 60
-31 70 35 57 26 260 -12 270 -35 9 -39 2 -32 -48 5 -33 2 -59 -6 -59 -9 0 -15
-36 -14 -80 0 -44 9 -80 19 -80 19 0 6 -670 -14 -702 -6 -10 14 -19 45 -19 90
-2 -2 -32 -217 -72 -179 -32 -181 -33 -170 -86 10 -49 4 -54 -94 -77 -250 -58
-453 -173 -453 -256 0 -63 23 -71 78 -29 54 41 213 18 195 -29 -13 -34 18 -78
45 -61 12 7 17 22 11 32 -6 11 -1 19 12 19 15 0 21 -33 16 -99 l-7 -99 85 12
c57 8 85 4 85 -11 0 -13 -16 -23 -36 -23 -60 0 -390 -91 -459 -127 -72 -38
-82 -33 -33 16 22 22 35 78 39 169 l7 137 -57 -3 c-74 -3 -93 -23 -61 -62 17
-20 24 -83 22 -181 -4 -129 0 -149 30 -149 46 0 18 -26 -36 -34 -63 -10 -68
-23 -25 -55 35 -25 39 -56 42 -281 2 -139 9 -258 15 -265 7 -6 12 43 12 109 0
176 23 325 42 275 11 -29 16 -19 20 41 2 44 6 94 8 110 2 17 5 40 7 53 2 12
20 27 40 32 39 10 41 -518 3 -545 -8 -5 -8 -27 -1 -49 23 -62 48 1 43 107 -2
51 2 183 9 295 l14 203 86 22 c48 12 92 22 98 22 15 0 14 -470 -1 -560 -11
-67 -16 -71 -85 -68 -51 2 -56 0 -17 -6 31 -5 61 -21 67 -37 9 -24 19 -24 68
1 79 41 121 39 105 -5 -10 -30 -6 -29 28 5 40 40 39 40 -35 46 -91 7 -97 26
-85 299 12 293 20 330 66 305 50 -27 60 -25 60 10 0 17 9 30 20 30 12 0 20
-70 20 -171 0 -116 7 -167 21 -158 15 9 19 -62 15 -229 l-6 -242 55 0 c30 0
55 -9 55 -20 0 -11 -21 -20 -47 -20 -62 0 -68 -9 -57 -84 9 -60 11 -61 26 -20
27 71 94 57 104 -21 7 -57 8 -55 6 10 -2 57 5 75 30 75 29 0 33 -31 36 -234 1
-128 7 -238 12 -243 6 -5 10 45 10 112 0 153 12 185 72 185 l48 0 0 -340 c0
-275 5 -340 27 -340 20 0 32 47 44 165 14 142 18 154 28 85 13 -94 41 -52 41
62 0 111 155 79 163 -33 9 -147 3 -159 -78 -162 -59 -2 -49 -6 50 -21 113 -18
125 -24 125 -67 0 -45 -4 -46 -145 -39 -80 4 -122 3 -95 -2 28 -5 96 -19 152
-30 l101 -19 2 -175 c3 -205 41 -628 64 -714 10 -33 18 550 19 1303 l2 1363
-81 8 c-45 4 -86 0 -92 -8 -5 -9 -18 -16 -29 -16 -11 0 -14 10 -7 22 10 15 0
18 -28 9 -24 -8 -43 -5 -43 6 0 10 63 25 140 33 l140 14 0 1169 0 1168 -110
-4 -110 -3 0 -180z m-243 -1904 c-6 -6 -109 -24 -229 -40 -120 -17 -231 -35
-248 -41 -27 -10 -27 -8 0 18 17 17 99 38 190 49 191 22 300 28 287 14z m-220
-340 c-5 -72 -37 -100 -37 -32 0 42 19 102 33 102 4 0 6 -31 4 -70z m-26 -564
c-5 -14 -33 -26 -62 -26 -28 0 -46 8 -41 18 11 17 27 134 36 257 3 37 15 65
30 65 17 0 28 31 30 85 3 47 7 -18 11 -144 3 -126 2 -240 -4 -255z m69 4 c0
-143 -5 -170 -32 -170 -24 0 -29 12 -21 45 7 25 13 101 13 170 0 70 9 125 20
125 12 0 20 -70 20 -170z m111 10 c16 0 29 -9 29 -20 0 -11 -21 -20 -47 -20
-41 0 -46 7 -36 55 8 38 13 44 18 20 5 -19 21 -35 36 -35z m264 -14 c-30 -5
-84 -5 -120 0 -36 4 -11 8 55 8 66 0 95 -4 65 -8z m-469 -112 c7 29 10 27 12
-9 1 -35 -9 -45 -46 -45 -40 0 -46 8 -37 43 10 40 13 40 36 9 24 -33 26 -33
35 2z m236 6 c1 -11 2 -38 2 -60 0 -75 -4 -80 -64 -80 -68 0 -69 2 -36 94 23
62 93 95 98 46z m-2 -249 c0 -57 58 -51 62 6 2 28 4 28 12 -2 5 -20 16 -31 25
-25 9 5 28 -4 41 -20 29 -35 -2 -38 -172 -17 -99 11 -101 13 -80 59 31 67 112
66 112 -1z m417 -109 c36 -23 21 -92 -21 -92 -18 0 -40 -7 -48 -15 -21 -21
-53 -19 -39 3 6 10 -3 23 -19 29 -22 9 -30 -2 -30 -38 0 -38 -10 -49 -48 -49
-43 0 -48 8 -46 87 l1 88 112 2 c61 1 123 -5 138 -15z"/>
<path d="M5645 7066 c-25 -5 -45 -22 -45 -39 0 -35 72 -20 119 25 32 31 23 33
-74 14z"/>
<path d="M5662 6975 c-1 -19 -15 -35 -32 -35 -16 0 -30 -9 -30 -20 0 -11 20
-16 45 -11 25 4 52 9 60 10 8 0 15 15 15 32 0 17 -8 26 -18 20 -10 -6 -23 0
-29 14 -6 15 -10 11 -11 -10z"/>
<path d="M3360 6782 c0 -9 14 -28 30 -42 17 -14 30 -17 30 -8 0 9 11 5 24 -8
28 -28 56 -32 56 -8 0 9 -31 32 -70 50 -38 18 -70 26 -70 16z"/>
<path d="M3360 6680 c0 -20 82 -60 121 -60 37 0 18 34 -32 57 -63 28 -89 29
-89 3z"/>
<path d="M3200 6664 c0 -9 32 -32 70 -50 55 -26 70 -28 70 -7 0 15 -23 37 -51
50 -60 27 -89 29 -89 7z"/>
<path d="M3360 6601 c0 -18 101 -81 129 -81 33 0 3 43 -48 69 -69 36 -81 38
-81 12z"/>
<path d="M3205 6576 c10 -31 135 -83 135 -57 0 18 -101 81 -131 81 -7 0 -9
-11 -4 -24z"/>
<path d="M3040 6552 c0 -28 35 -42 85 -34 8 1 15 -7 15 -18 0 -11 9 -20 20
-20 34 0 22 55 -15 65 -19 6 -51 17 -70 25 -25 10 -35 5 -35 -18z"/>
<path d="M3200 6484 c0 -23 121 -70 137 -54 17 17 -23 46 -82 61 -33 8 -55 5
-55 -7z"/>
<path d="M3040 6463 c0 -17 88 -63 121 -63 37 0 18 34 -32 57 -60 27 -89 29
-89 6z"/>
<path d="M3200 6400 c0 -20 82 -60 121 -60 43 0 14 38 -44 58 -77 27 -77 27
-77 2z"/>
<path d="M3040 6374 c0 -16 16 -34 35 -39 19 -6 51 -17 70 -25 24 -10 35 -5
35 16 0 16 -16 34 -35 39 -19 6 -51 17 -70 25 -24 10 -35 5 -35 -16z"/>
<path d="M3360 6338 c0 -16 81 -58 111 -58 34 0 -2 40 -51 57 -38 13 -60 14
-60 1z"/>
<path d="M3200 6313 c0 -14 32 -36 71 -48 91 -28 85 11 -7 49 -53 22 -64 22
-64 -1z"/>
<path d="M3040 6285 c0 -25 117 -75 134 -57 19 19 -16 47 -79 63 -32 8 -55 5
-55 -6z"/>
<path d="M3360 6259 c0 -20 66 -59 99 -59 42 0 20 32 -39 54 -33 12 -60 15
-60 5z"/>
<path d="M3200 6224 c0 -23 121 -70 137 -54 17 17 -23 46 -82 61 -33 8 -55 5
-55 -7z"/>
<path d="M3040 6195 c0 -15 32 -38 70 -50 55 -17 70 -16 70 5 0 14 -16 30 -35
35 -19 6 -51 17 -70 25 -24 10 -35 5 -35 -15z"/>
<path d="M3203 6140 c14 -40 97 -66 97 -29 0 16 -8 29 -18 29 -10 0 -34 6 -53
13 -23 9 -32 5 -26 -13z"/>
<path d="M1319 6080 c0 -38 -1 -133 -2 -210 -3 -202 -1 -210 34 -197 18 7 24
20 13 34 -10 13 -15 104 -13 203 3 99 -3 194 -13 210 -13 21 -18 10 -19 -40z"/>
<path d="M3360 6079 c0 -12 9 -16 20 -9 11 7 20 4 20 -6 0 -11 18 -24 40 -30
58 -15 49 24 -11 46 -65 25 -69 25 -69 -1z"/>
<path d="M3045 6015 c9 -27 112 -64 130 -47 17 18 -2 31 -74 52 -46 13 -62 12
-56 -5z"/>
<path d="M2195 5985 c-87 -29 -127 -65 -72 -65 58 0 177 49 177 73 0 15 -2 26
-5 25 -3 -1 -48 -16 -100 -33z"/>
<path d="M2885 5939 c-38 -15 -65 -59 -36 -59 31 0 111 43 111 60 0 24 -14 24
-75 -1z"/>
<path d="M755 5892 c-52 -23 -95 -48 -95 -56 0 -17 97 11 170 49 90 47 29 54
-75 7z"/>
<path d="M1970 5911 c-6 -17 -14 -44 -19 -61 -13 -41 13 -38 51 6 26 30 26 40
4 61 -21 20 -28 19 -36 -6z"/>
<path d="M2195 5903 c-93 -29 -139 -81 -50 -55 25 8 62 18 84 22 41 10 84 45
70 56 -5 4 -52 -6 -104 -23z"/>
<path d="M1880 5900 c-16 -9 -55 -25 -85 -37 -91 -36 -76 -108 20 -94 l75 10
-75 -21 c-42 -12 -75 -35 -75 -51 0 -22 9 -24 40 -7 22 12 40 15 40 8 0 -8 18
2 39 21 22 20 38 41 37 48 -1 7 4 38 13 69 18 65 13 75 -29 54z"/>
<path d="M655 5785 c-80 -33 -105 -77 -30 -54 101 32 135 49 135 69 0 25 -12
24 -105 -15z"/>
<path d="M1884 5706 l-142 -116 -1 -353 c-1 -398 -5 -416 -78 -419 -40 -2 -43
-5 -13 -11 89 -20 102 -32 50 -48 l-50 -15 45 -15 c31 -9 45 -29 45 -64 0 -50
129 -54 160 -5 17 28 131 32 125 5 -3 -14 7 -25 22 -25 22 0 29 44 31 190 3
144 -2 190 -22 190 -17 1 -19 6 -5 15 12 8 24 57 26 109 l5 94 -61 -18 c-37
-10 -61 -10 -61 1 0 11 10 19 22 19 12 0 17 14 11 30 -8 21 1 30 33 30 36 -1
38 -4 14 -20 -26 -17 -25 -19 5 -20 26 0 35 16 35 60 0 51 -8 60 -51 60 -44 0
-48 5 -30 39 15 27 15 43 0 51 -11 8 -15 32 -8 55 11 34 7 39 -29 30 -23 -6
-42 -4 -42 5 0 37 85 35 123 -3 l41 -41 -8 146 c-9 183 -19 185 -192 44z"/>
<path d="M2729 5799 c-7 -12 -9 -25 -5 -30 14 -13 96 15 96 33 0 25 -75 22
-91 -3z"/>
<path d="M635 5707 c-52 -16 -95 -39 -95 -50 0 -12 11 -17 25 -12 14 5 59 21
100 36 41 15 75 34 75 43 0 9 -2 15 -5 14 -3 -1 -48 -15 -100 -31z"/>
<path d="M4637 5715 c13 -13 23 -48 23 -80 0 -56 0 -56 60 -25 69 36 41 92
-58 116 -36 9 -42 6 -25 -11z"/>
<path d="M700 5661 c-49 -19 -107 -41 -128 -48 -21 -8 -33 -19 -27 -25 15 -15
232 50 247 75 21 34 1 34 -92 -2z"/>
<path d="M2121 5641 c-17 -10 -24 -25 -17 -32 18 -17 96 9 96 32 0 24 -41 24
-79 0z"/>
<path d="M790 5551 c-52 -24 -54 -28 -17 -29 56 -2 107 17 107 40 0 24 -18 22
-90 -11z"/>
<path d="M2025 5449 c0 -61 42 -55 51 8 4 27 -4 43 -22 43 -18 0 -29 -20 -29
-51z"/>
<path d="M806 5419 c-9 -8 -34 -19 -56 -24 -22 -4 1 -12 52 -16 76 -8 90 -4
83 23 -8 33 -52 42 -79 17z"/>
<path d="M1324 5076 c-33 -33 -30 -56 8 -56 21 0 28 -11 20 -30 -7 -16 -17
-42 -23 -57 -6 -15 3 -33 20 -40 17 -6 31 -3 31 8 0 10 -11 19 -24 19 -19 0
-19 5 0 24 32 32 31 116 -1 116 -17 1 -15 7 5 20 17 11 21 20 9 20 -12 0 -32
-11 -45 -24z"/>
<path d="M1291 4782 c-27 -11 -31 -19 -14 -30 14 -9 38 -11 53 -5 19 8 24 1
16 -23 -9 -28 -6 -27 18 4 17 21 40 32 53 24 13 -8 23 -6 23 4 0 35 -88 50
-149 26z"/>
<path d="M1180 4641 c0 -12 45 -21 100 -21 130 0 130 28 0 36 -59 3 -100 -3
-100 -15z"/>
<path d="M1420 4620 c0 -11 22 -20 49 -20 27 0 54 9 61 20 7 12 -13 20 -49 20
-33 0 -61 -9 -61 -20z"/>
<path d="M1100 4582 c0 -20 121 -42 147 -27 27 16 -31 44 -92 45 -30 0 -55 -8
-55 -18z"/>
<path d="M4573 4495 c-29 -105 -15 -175 32 -174 41 0 42 2 11 26 -26 20 -29
32 -11 50 14 14 15 23 2 23 -11 0 -16 27 -11 60 10 70 -6 80 -23 15z"/>
<path d="M4905 4025 c-18 -6 -24 -60 -21 -192 l4 -183 7 174 c6 161 10 174 51
180 32 5 36 10 14 18 -16 7 -41 8 -55 3z"/>
<path d="M3 3916 c-1 -91 2 -96 53 -97 30 0 175 -9 323 -19 293 -20 295 -20
263 33 -11 21 -21 26 -21 12 -1 -14 -14 -25 -29 -25 -18 0 -25 14 -18 40 8 29
27 40 70 40 34 0 53 8 46 20 -7 11 -30 20 -51 20 -22 0 -39 8 -39 18 0 16 -84
24 -493 49 l-103 6 -1 -97z"/>
<path d="M5140 3965 c1 -28 39 -77 40 -50 0 14 18 25 40 25 22 0 40 9 40 20 0
11 -27 20 -60 20 -33 0 -60 -7 -60 -15z"/>
<path d="M1100 3881 c-139 -28 -9 -40 260 -24 l270 17 -190 3 c-104 2 -208 7
-230 11 -22 4 -71 1 -110 -7z"/>
<path d="M775 3843 c-22 -25 -17 -28 30 -16 42 11 55 7 55 -17 0 -26 5 -27 28
-6 17 16 21 34 11 45 -29 30 -98 27 -124 -6z"/>
<path d="M4296 3810 c-3 -3 -76 -10 -162 -16 -228 -14 -217 -38 16 -34 256 5
270 4 270 -18 0 -10 -51 -17 -113 -16 -98 3 -117 -3 -145 -45 l-31 -48 109 13
c61 8 130 14 155 14 87 0 64 152 -24 154 -37 1 -71 -1 -75 -4z"/>
<path d="M1603 3757 c3 -26 -1 -57 -8 -70 -27 -43 515 -68 635 -30 l60 20 -65
1 c-36 1 -65 11 -65 22 0 12 -31 16 -75 11 -284 -38 -445 -31 -445 19 0 26
-10 54 -22 61 -14 9 -19 -4 -15 -34z"/>
<path d="M4398 3491 c-5 -5 -43 -11 -84 -14 -41 -3 -74 -11 -74 -19 0 -8 38
-9 85 -3 89 11 108 18 92 35 -6 6 -14 6 -19 1z"/>
<path d="M5778 1414 c12 -12 21 -58 19 -103 l-3 -81 -14 80 c-13 75 -15 72
-21 -50 -7 -138 -12 -201 -20 -225 -8 -28 -14 -55 -16 -75 -2 -11 -16 -20 -33
-20 -66 0 -21 -34 141 -103 l169 -73 0 306 0 305 -122 31 c-77 19 -114 22
-100 8z"/>
<path d="M5960 500 c-12 -23 -16 -50 -10 -60 23 -38 43 -20 43 40 0 71 -4 73
-33 20z"/>
</g>
</svg>
